<?xml version="1.0" encoding="UTF-8"?>
<svg width="184px" height="83px" viewBox="0 0 184 83" version="1.1" xmlns="http://www.w3.org/2000/svg" xmlns:xlink="http://www.w3.org/1999/xlink">
    <!-- Generator: Sketch 43.1 (39012) - http://www.bohemiancoding.com/sketch -->
    <title>Untitled</title>
    <desc>Created with Sketch.</desc>
    <defs></defs>
    <g id="Page-1" stroke="none" stroke-width="1" fill="none" fill-rule="evenodd">
        <g id="Group" fill-rule="nonzero">
            <g transform="translate(167.000000, 75.000000)" id="Shape" fill="#FFFFFF">
                <path d="M2,7 C1.4,6.9 0.9,6.5 0.4,6.1 L0.8,5.5 C1.2,5.9 1.6,6.2 2.1,6.3 C2.5,6.4 2.8,6.4 3.1,6.2 C3.3,6.1 3.6,5.8 3.6,5.3 C3.6,4.6 3,4.4 2.4,4.3 C2.3,4.3 1.5,4.1 1.2,3.9 C0.8,3.6 0.5,3.1 0.5,2.5 C0.5,2.2 0.6,1.9 0.7,1.6 C0.9,1.4 1.1,1.2 1.3,1 C1.7,0.8 2.1,0.7 2.6,0.8 C3.1,0.9 3.6,1.2 4,1.6 L3.6,2.2 C2.8,1.5 2.1,1.4 1.6,1.7 C1.3,1.9 1.1,2.2 1.1,2.5 C1.1,3.1 1.5,3.3 2.2,3.5 C2.5,3.6 3.1,3.7 3.4,3.9 C3.9,4.2 4.1,4.7 4.1,5.3 C4.1,5.7 4,6 3.8,6.3 C3.6,6.6 3.4,6.8 3.1,6.9 C2.8,7.1 2.5,7.1 2.2,7.1 C2.3,7.1 2.2,7.1 2,7 Z"></path>
                <path d="M5.8,6.5 C5.8,6.8 5.6,7 5.4,7 C5.2,7 5,6.8 5,6.5 C5,6.2 5.2,6 5.4,6 C5.6,6 5.8,6.3 5.8,6.5 Z"></path>
                <path d="M9.7,5.2 L7.5,5.2 L6.9,7 L6.2,7 L8.2,0.8 L8.9,0.8 L11,7 L10.3,7 L9.7,5.2 Z M8.6,1.9 L7.8,4.4 L9.5,4.4 L8.6,1.9 Z"></path>
                <path d="M12.4,6.5 C12.4,6.8 12.2,7 12,7 C11.8,7 11.6,6.8 11.6,6.5 C11.6,6.2 11.8,6 12,6 C12.2,6 12.4,6.3 12.4,6.5 Z"></path>
                <path d="M14.4,7 C13.8,6.9 13.3,6.5 12.8,6.1 L13.2,5.5 C13.6,5.9 14,6.2 14.5,6.3 C14.9,6.4 15.2,6.4 15.5,6.2 C15.7,6.1 16,5.8 16,5.3 C16,4.6 15.4,4.4 14.8,4.3 C14.7,4.3 13.9,4.1 13.6,3.9 C13.2,3.6 12.9,3.1 12.9,2.5 C12.9,2.2 13,1.9 13.1,1.6 C13.3,1.4 13.5,1.2 13.7,1 C14.1,0.8 14.5,0.7 15,0.8 C15.5,0.9 16,1.2 16.4,1.6 L16,2.2 C15.2,1.5 14.5,1.4 14,1.7 C13.7,1.9 13.5,2.2 13.5,2.5 C13.5,3.1 13.9,3.3 14.6,3.5 C14.9,3.6 15.5,3.7 15.8,3.9 C16.3,4.2 16.5,4.7 16.5,5.3 C16.5,5.7 16.4,6 16.2,6.3 C16,6.6 15.8,6.8 15.5,6.9 C15.2,7.1 14.9,7.1 14.6,7.1 C14.8,7.1 14.6,7.1 14.4,7 Z"></path>
            </g>
            <g transform="translate(0.000000, 53.000000)" id="Shape" fill="#FFFFFF">
                <path d="M14,13.5 L15.6,14.7 C14,16.9 11.5,18.2 8.9,18.2 C4.2,18.2 0.4,14.3 0.4,9.5 C0.4,4.7 4.2,0.8 8.9,0.8 C11.6,0.8 14,2.1 15.7,4.3 L14,5.5 C12.8,3.8 10.9,2.8 8.9,2.8 C5.3,2.8 2.4,5.8 2.4,9.4 C2.4,13.1 5.3,16 8.9,16 C10.9,16.1 12.8,15.1 14,13.5 Z"></path>
                <path d="M34.1,9.5 C34.1,14.3 30.3,18.1 25.6,18.1 C20.9,18.1 17.2,14.2 17.2,9.5 C17.2,4.7 21,0.8 25.6,0.8 C30.2,0.8 34.1,4.7 34.1,9.5 Z M32.1,9.5 C32.1,5.9 29.2,2.9 25.7,2.9 C22.2,2.9 19.3,5.9 19.3,9.5 C19.3,13.1 22.2,16.1 25.7,16.1 C29.2,16.1 32.1,13.1 32.1,9.5 Z"></path>
                <polygon points="36.6 1.3 38.6 1.3 38.6 15.8 47.4 15.8 47.4 17.8 36.6 17.8"></polygon>
                <polygon points="60.1 9.2 51.8 9.2 51.8 17.8 49.8 17.8 49.8 1.3 51.8 1.3 51.8 7.2 60.1 7.2 60.1 1.3 62.1 1.3 62.1 17.9 60.1 17.9"></polygon>
                <polygon points="66.1 1.3 68.1 1.3 68.1 17.9 66.1 17.9"></polygon>
                <path d="M72.1,1.3 L77.3,1.3 C81.9,1.3 85.6,5 85.6,9.6 C85.6,14.2 81.9,17.9 77.3,17.9 L72.1,17.9 L72.1,1.3 Z M83.6,9.6 C83.6,6.2 80.8,3.3 77.3,3.3 L74.1,3.3 L74.1,15.8 L77.3,15.8 C80.8,15.8 83.6,13 83.6,9.6 Z"></path>
                <path d="M100.6,17.9 L98.3,17.9 L92.1,9.2 L89.8,9.2 L89.8,17.9 L87.8,17.9 L87.8,1.3 L93.4,1.3 C94.4,1.3 95.4,1.7 96.1,2.5 C96.8,3.3 97.2,4.2 97.2,5.3 C97.2,7.1 96,8.7 94.3,9.1 L100.6,17.9 Z M89.8,7.2 L93.5,7.2 C94.5,7.2 95.4,6.3 95.4,5.3 C95.4,4.2 94.6,3.4 93.5,3.4 L89.8,3.4 L89.8,7.2 Z"></path>
                <path d="M111.6,13.1 L105,13.1 L103.2,17.9 L101,17.9 L107.2,1.3 L109.3,1.3 L115.5,17.9 L113.3,17.9 L111.6,13.1 Z M108.3,4.3 L105.8,11 L110.8,11 L108.3,4.3 Z"></path>
                <path d="M128.8,1.3 L128.8,11.8 C128.8,15.3 126,18.1 122.6,18.1 C119.2,18.1 116.5,15.3 116.5,11.8 L116.5,1.3 L118.5,1.3 L118.5,11.8 C118.5,14.1 120.4,16.1 122.6,16.1 C124.9,16.1 126.7,14.2 126.7,11.8 L126.7,1.3 L128.8,1.3 Z"></path>
                <polygon points="132.1 1.3 134.1 1.3 134.1 15.8 142.9 15.8 142.9 17.8 132 17.8 132 1.3"></polygon>
                <polygon points="146 1.3 148 1.3 148 17.9 146 17.9"></polygon>
                <path d="M164.7,13.5 L166.3,14.7 C164.7,16.9 162.2,18.2 159.6,18.2 C154.9,18.2 151.1,14.3 151.1,9.5 C151.1,4.7 154.9,0.8 159.6,0.8 C162.3,0.8 164.7,2.1 166.4,4.3 L164.8,5.5 C163.6,3.8 161.7,2.8 159.7,2.8 C156.1,2.8 153.2,5.8 153.2,9.4 C153.2,13.1 156.1,16 159.7,16 C161.6,16.1 163.5,15.1 164.7,13.5 Z"></path>
                <path d="M178.2,13.1 L171.6,13.1 L169.8,17.9 L167.6,17.9 L173.8,1.3 L175.9,1.3 L182.1,17.9 L180,17.9 L178.2,13.1 Z M174.9,4.3 L172.4,11 L177.4,11 L174.9,4.3 Z"></path>
            </g>
            <g transform="translate(46.000000, 0.000000)" id="Shape">
                <path d="M63.8,18.4 C63.8,18.5 63.9,18.6 63.9,18.7 C63.8,20.9 63.8,23.2 63.7,25.5 L63,25.5 C61.1,25.6 59.2,25.7 57.3,25.8 C56.9,25.8 56.8,25.9 56.8,26.3 C56.8,26.7 56.8,27.1 56.9,27.6 C57.7,27.6 58.4,27.5 59.2,27.5 C60.2,27.4 61.2,27.4 62.2,27.3 C62.3,27.3 62.3,27.3 62.4,27.4 C62,27.9 61.5,28.3 61.1,28.8 C60.9,28.8 60.8,28.9 60.6,28.9 L57.4,28.9 C56.8,28.9 56.8,28.9 56.6,29.6 L64.6,29.6 C64.6,30.2 64.7,30.8 64.7,31.5 L63.3,31.5 L63.3,32.5 L62.9,32.5 C56.6,32.6 50.3,32.6 43.9,32.7 L43.6,32.7 C43.2,32.7 43,32.5 43,32.1 L43,31.3 C43,31.3 43,31.3 43,31.2 C45.3,31.1 47.7,31.1 50,31 L50,30.9 L42.9,30.9 L42.9,30.1 C42.9,29.4 43,28.8 43,28.1 C43,27.4 43.2,27.2 43.9,27.1 L44.5,27.1 L44.5,25.8 C44.5,25.7 44.6,25.5 44.7,25.4 C44.7,25.3 44.8,25.3 44.9,25.2 C45.3,24.8 45.7,24.1 46.5,24.4 C46,23 45.6,21.7 45.1,20.3 C45.7,20.3 46.2,20.1 46.5,19.6 C46.6,20 46.8,20.3 46.9,20.7 C47.3,21.9 47.7,23 48.1,24.2 C48.1,24.3 48.2,24.4 48.3,24.4 L51.3,24.4 C49.3,21.3 47.3,18.3 44.7,15.7 C44.9,16.2 45.1,16.6 45.2,17.1 C45.3,17.4 45.5,17.7 45.1,17.9 C44.8,18 44.5,17.8 44.4,17.5 C44.1,16.6 43.7,15.8 43.4,15 C43.3,14.8 43.2,14.7 43,14.6 C42.1,14 41.2,13.9 40.2,13.9 C38.3,13.9 36.4,14.1 34.5,14.2 C34.4,14.2 34.3,14.2 34.2,14.1 C35,14 35.8,13.8 36.6,13.7 C39.1,13.4 41.6,13.2 44.1,13.3 C45.2,13.4 46.4,13.4 47.4,14 C48.6,14.7 49.6,15.6 50.5,16.7 C50.7,16.9 50.8,17.1 51,17.3 C51.4,17.9 52.2,17.8 52.6,17.2 C52.8,16.9 52.8,16.7 52.6,16.4 C52,15.4 51.5,14.4 50.9,13.4 C51.2,14.1 51.4,14.9 51.7,15.6 C51.8,16 52,16.3 52.1,16.7 C52.2,16.9 52.3,17.2 52,17.3 C51.7,17.4 51.5,17.3 51.3,17 C51,16.3 50.8,15.6 50.5,14.9 C50.2,14.1 49.9,13.2 49.5,12.4 C49.5,12.3 49.4,12.1 49.3,12.1 C48.8,12 48.6,11.7 48.5,11.3 C48.5,10.8 48.6,10.4 48.6,9.9 C48.6,9.7 48.6,9.5 48.5,9.4 C48.1,8.9 47.7,8.4 47.3,7.9 C46.8,7.4 46.2,7.4 45.6,7.4 C44.8,7.4 43.9,7.5 43.1,7.6 C40.7,8 38.5,8.6 36.2,9.5 C35,10 33.9,10.8 32.9,11.7 C32.9,11.7 32.8,11.8 32.7,11.8 C33,11.4 33.3,11.1 33.6,10.7 L33.6,10.7 C34.1,10.4 34.5,10 35,9.7 C36.4,8.8 37.9,8.2 39.4,7.8 C41,7.3 42.7,7 44.3,6.6 C44.9,6.5 45.6,6.4 46.3,6.4 C46.3,6.1 46.3,5.8 46.2,5.5 L46.1,5.5 C45.9,5.8 45.7,6.1 45.3,6 C45,6 44.7,5.6 44.6,5.1 C44.5,4.6 44.6,4.1 45,3.6 C44.2,3.5 43.5,3.4 42.8,3.3 L42.8,3.4 C43.1,3.5 43.5,3.6 43.8,3.7 C44,3.7 44.1,3.9 44.1,4.1 C44.1,4.4 44.2,4.8 44.2,5.1 C44.2,5.6 44,5.7 43.6,5.6 C41.8,5.2 40,4.9 38.2,4.5 C37.3,4.3 36.5,4.2 35.6,4 C36.1,3.6 36.4,3.3 36.4,2.7 C36.4,2.2 36.5,1.6 36,1.1 C36.6,1.3 37.2,1.3 37.6,1.8 C37.8,2 38.1,2.1 38.4,2.2 C39.5,2.5 40.6,2.8 41.7,3.1 C42.1,3.2 42.4,3.1 42.8,3.1 C43.7,3 44.7,2.9 45.6,2.8 C46.4,2.8 47,3.2 47.3,4.1 C47.6,5 47.8,6 48,6.9 C48,7 48.1,7.2 48.2,7.2 C49.4,8.6 50.4,10.2 51.4,11.8 C52.2,13.2 53,14.6 53.8,16 C54.5,17.3 55.2,18.6 55.9,19.9 C56,20 56,20.1 56,20.2 C55.9,20.8 55.8,21.4 55.7,22.1 C54.8,20.3 53.9,18.6 53.1,16.9 C53.1,16.9 53.1,16.9 53,16.9 C53.1,17.2 53.2,17.4 53.3,17.7 C53.5,18.2 53.4,18.4 53,18.7 C52.9,18.8 52.7,18.9 52.6,19 C52.7,19.1 52.8,19.2 52.9,19.4 C53.1,19.2 53.3,19 53.5,18.8 C54.1,20.7 54.7,22.5 55.8,24 C56,23.1 56.2,22.1 56.4,21.1 C56.3,21.3 56.2,21.5 56.1,21.6 L56.1,21.6 C56.3,20.8 56.6,20.1 56.8,19.3 C57.1,18.4 57.3,17.4 57.6,16.5 C57.7,16.2 57.8,16 58.2,16 C58.9,15.9 59.6,15.7 60.3,15.6 L60.8,15.6 C61.1,15.9 61.4,16.2 61.7,16.5 C61.6,16.5 61.5,16.6 61.3,16.6 C60.3,16.6 59.4,16.7 58.4,16.7 C58.2,16.7 58.1,16.8 58,17 C57.7,17.9 57.3,18.7 57,19.6 C56.8,20.1 56.7,20.7 56.7,21.2 C56.8,21.9 56.7,22.6 56.8,23.4 C56.8,24.1 56.9,24.7 56.9,25.4 C58.9,25.1 60.9,24.8 62.8,24.5 L62.8,24.2 C62.9,22.4 62.9,20.5 63,18.7 C63,18.5 63.1,18.2 63.1,18 C63.3,18 63.6,18.2 63.8,18.4 Z M56.1,29.2 C55.4,29.3 55.1,29 55,28.4 C54.9,28.1 54.8,27.7 54.7,27.4 C54.4,26.5 54.4,26.5 53.4,26.4 L53.3,26.4 C52.7,26.4 52.4,26.2 52.2,25.7 C52.1,25.5 52,25.3 51.9,25.1 C51.8,24.9 51.6,24.8 51.3,24.8 L48.7,24.8 L48.4,24.8 C48.6,25.4 48.8,25.9 49,26.5 C49,26.6 49.2,26.7 49.3,26.7 C49.9,26.7 50.6,26.8 51.2,26.7 C51.8,26.7 52.1,27 52.4,27.4 C53,28.4 53.6,29.5 54.2,30.5 C54.3,30.6 54.4,30.7 54.5,30.7 L56.3,30.7 C56.2,30.2 56.2,29.7 56.1,29.2 Z M49.4,27.4 C49.4,27.5 49.4,27.5 49.4,27.4 C49.5,27.9 49.6,28.3 49.8,28.8 C50,29.3 49.8,29.7 49.3,29.9 C48.8,30.1 48.4,29.8 48.2,29.3 C48.1,29 48,28.6 47.9,28.3 C47.6,27.4 47.6,27.4 46.7,27.5 C45.8,27.5 45,27.6 44.1,27.7 C44,28.6 44,29.4 43.9,30.3 C46,30.2 48,30.2 50,30.1 L50,27.5 C49.8,27.4 49.6,27.4 49.4,27.4 Z M47.3,26.6 C47.1,26.1 47,25.6 46.8,25.1 C46.7,24.7 46.3,24.6 46,24.9 C45.5,25.3 45.1,25.8 45.3,26.6 L47.3,26.6 Z" fill="#FFC200"></path>
                <path d="M17.5,36.9 C17.6,38 17.7,39.2 17.7,40.3 C17.7,40.5 17.6,40.8 17.5,41 C17.3,41.6 17,42.1 16.7,42.7 C16.6,42.9 16.5,43 16.3,43 L15.3,43 C15.2,41 15.1,39 15,37.1 L12.3,37.1 C12.4,38.3 12.5,39.5 12.6,40.6 C12.6,40.7 12.6,40.8 12.5,40.9 C12.2,41.5 11.9,42.2 11.7,42.8 C11.6,43 11.5,43.2 11.2,43.1 L10.2,43.1 C10.1,41.1 10,39.1 9.9,37.1 L7.7,37.1 C7.8,37.8 7.7,38.5 7.9,39.2 C8.2,40.4 7.8,41.4 7.3,42.5 C7,43.1 6.7,43.3 6.1,43.2 L5.6,43.2 C5.5,41.2 5.4,39.2 5.4,37.2 L3.3,37.2 C3.4,38.3 3.5,39.4 3.6,40.5 C3.7,41 3.4,41.4 3.3,41.8 C3.1,42.2 2.9,42.7 2.7,43.1 C2.6,43.2 2.4,43.3 2.3,43.4 L1.3,43.4 C1.2,40.6 1,37.8 0.9,35 C1.5,34.9 2,34.9 2.5,34.8 C2.6,35 2.7,35.3 2.8,35.5 C3.6,35.5 4.4,35.4 5.3,35.4 L5.3,34.7 C5.9,34.6 6.4,34.6 6.9,34.5 L7,34.6 C7.2,35.4 7.2,35.4 8,35.3 C8.6,35.3 9.2,35.2 9.8,35.2 L9.8,34.7 C10.3,34.6 10.9,34.6 11.4,34.5 C11.4,34.5 11.5,34.5 11.5,34.6 C11.6,35.1 11.8,35.2 12.3,35.2 C13.2,35.1 14,35.1 14.9,35 L14.9,34.5 C15.4,34.4 15.9,34.4 16.3,34.3 C16.4,34.3 16.5,34.5 16.6,34.6 C16.7,34.7 16.7,34.9 16.8,34.9 C17.6,34.9 18.4,34.8 19.2,34.8 L19.2,34.2 C13.2,34 7,34.1 0.8,34.1 L0.8,32.7 C0.8,32.6 1,32.5 1.1,32.5 C2.1,32.4 3.2,32.4 4.2,32.3 C7.8,32.1 11.4,31.9 14.9,31.7 C17.7,31.6 20.5,31.4 23.3,31.3 C23.9,31.3 24.4,31.3 25,31.2 C25.2,31.2 25.3,31.2 25.4,31.5 C25.7,32.7 25.9,33.9 26.3,35.1 C26.7,36.2 26.6,37.3 26.7,38.4 C26.7,38.8 26.8,39.1 26.8,39.5 C26.9,39.9 26.8,40.3 26.6,40.7 C26.3,41.3 26,42 25.7,42.6 C25.7,42.7 25.5,42.8 25.4,42.8 L24.6,42.8 C24.2,42.8 24.1,42.7 24.1,42.3 C24.1,40.7 24,39.2 23.9,37.6 C23.9,37.3 23.8,37 23.8,36.7 L21.8,36.7 C21.8,37.1 21.8,37.4 21.9,37.8 C21.9,38.4 22,39 22,39.7 C22,39.9 21.9,40.2 21.9,40.4 C21.7,41 21.4,41.5 21.1,42.1 C21,42.4 20.8,42.5 20.5,42.5 L19.6,42.5 C19.5,40.6 19.5,38.8 19.4,36.9 C18.8,36.9 18.1,36.9 17.5,36.9 Z M21.2,33.8 C21.2,34.3 21.4,34.4 21.7,34.4 C22.3,34.3 22.9,34.3 23.5,34.3 C23.6,34.3 23.8,34.2 23.8,34.1 C23.9,33.9 23.7,33.8 23.5,33.8 L21.2,33.8 Z" fill="#FFC200"></path>
                <path d="M61.4,45 C61.1,45 60.9,45.1 60.6,45.1 C58.2,45.2 55.7,45.3 53.3,45.4 C52.1,45.4 50.9,45.3 49.6,45.3 C49.3,45.3 49,45 48.8,44.9 L48.8,44.8 L52,44.8 L52,44.6 C51.9,44.5 51.7,44.5 51.6,44.5 L48,44.5 C47.7,44.5 47.6,44.4 47.5,44.2 C47.4,43.9 47.3,43.6 47.2,43.3 L51.1,43.3 C51.1,42.6 51.1,42.6 50.4,42.6 L47.5,42.6 C47.5,42.8 47.6,43 47.6,43.2 C45.5,43.1 43.5,43 41.4,43 C42,41.6 42,40.2 41.3,38.9 L42.4,38.9 C43.7,38.9 45.1,39 46.4,39 C46.7,39 46.8,38.9 46.9,38.7 C47.1,37.9 47.2,37.9 47.9,37.9 L50.6,37.9 C50.9,37.9 51.1,37.9 51.2,37.5 L47.5,37.5 C47.8,37.1 48,36.8 48.3,36.5 C48.4,36.4 48.6,36.4 48.7,36.4 L51.9,36.4 C52.3,36.4 52.6,36.2 53,35.9 L49.3,35.9 C49.7,35.4 50,35.2 50.6,35.2 C51.8,35.3 53.1,35.3 54.3,35.3 C54.5,35.3 54.7,35.2 55,35.2 L55,35.1 L52.4,35.1 C53.1,34.7 53.8,34.7 54.5,34.7 L55.5,34.7 C56.4,34.8 57.1,34.4 57.9,34.3 C58.1,34.3 58.3,34.2 58.5,34.2 C59.8,34.4 61.1,34.5 62.5,34.7 C64.3,34.9 66.1,35.1 67.9,35.4 C69.2,35.6 70.4,35.7 71.7,35.9 C72.7,36.1 73.7,36.5 74.7,36.9 C75.2,37.1 75.8,37.2 76.3,37.4 C76.4,37.4 76.6,37.6 76.7,37.7 C77.3,39 77.8,40.3 77.5,41.7 C77.4,42.2 77.4,42.7 77.3,43.1 C77.3,42.8 77.2,42.4 77.2,42.1 C77,41.2 76.8,40.3 76.5,39.4 C76.3,38.7 75.7,38.3 75,38 C74,37.7 73,37.4 71.9,37.1 C71.6,37 71.2,37 70.9,36.9 C70.9,37.2 70.9,37.5 70.8,37.7 C70.7,37.9 70.5,38.1 70.4,38.2 C70.2,38.2 70,38 69.9,37.8 C69.8,37.5 69.8,37.2 69.8,36.9 C69.2,36.9 68.6,36.8 67.9,36.8 L67.9,37.3 C67.9,37.4 67.9,37.6 67.8,37.7 C67.7,38.1 67.4,38.4 67.1,38.4 C66.8,38.4 66.5,38 66.4,37.6 L66.4,36.6 C65.7,36.5 65.1,36.5 64.3,36.4 L64.3,36.9 C64.3,37.2 64.3,37.5 64.2,37.7 C64.1,37.9 63.8,38.2 63.6,38.2 C63.4,38.2 63.1,37.9 63,37.7 C62.9,37.3 62.9,36.8 62.8,36.3 C62.1,36.2 61.4,36.2 60.6,36.1 C60.8,36.7 60.9,37.2 60.6,37.7 C60.5,37.9 60.2,38.1 60,38.1 C59.8,38.1 59.6,37.9 59.5,37.7 C59.2,37.2 59.3,36.6 59.6,36.1 L57.8,36.1 C58.1,36.9 58.1,37.6 57.4,38.2 C58.4,38.3 59.3,38.3 60.3,38.3 C64,38.4 67.6,38.6 71.3,38.7 C72.5,38.7 73.7,38.8 74.9,38.9 C75.3,38.9 75.5,39 75.5,39.4 C75.5,39.8 75.6,40.2 75.7,40.6 L74.6,40.6 C69.2,40.5 63.8,40.4 58.4,40.3 C57.8,40.3 57.3,40.3 56.7,40.2 C56.6,40.2 56.4,40.1 56.4,40 C56.5,39.1 55.9,38.7 55.4,38.2 C55.4,38.2 55.4,38.1 55.3,38.1 L55.3,38.1 L57.1,38.1 C56.5,37.6 56.6,37 56.6,36.3 C56.3,36.4 56,36.4 55.7,36.5 C55.1,36.7 54.4,36.9 53.8,37.3 C53.1,37.8 52.9,38.6 52.7,39.4 C52.4,40.6 52.3,41.7 52.8,42.9 C53.1,43.5 53.5,44 54.2,44 C54.7,44 55.1,44.1 55.6,44.1 C55.4,43.8 55.3,43.6 55.1,43.3 L57.2,43.3 C57,43.6 56.8,43.9 56.6,44.2 L58.3,44.2 C58.1,44 57.8,43.7 57.5,43.3 L59.6,43.3 L59.7,43.4 C59.5,43.7 59.2,44 59,44.3 C59.3,44.3 59.6,44.4 59.9,44.4 C60.7,44.3 61.1,44.7 61.4,45 Z M50.9,40.7 L50.7,40.7 L47.1,40.7 C47,40.7 46.8,40.7 46.8,40.6 C46.7,40.3 46.5,40.4 46.3,40.4 L45.1,40.4 L43.4,40.4 L43.4,41.4 L43.7,41.4 C44.9,41.3 46.1,41.6 47.2,41.3 C47.6,41.2 48,41.3 48.4,41.3 L50.9,41.3 L50.9,40.7 Z M50.9,38.8 L47.3,38.8 L47.3,39.4 L47.7,39.4 L50.5,39.4 C51,39.4 51,39.4 50.9,38.8 Z" fill="#CCCCCC"></path>
                <path d="M16.4,16 C16.5,16 16.6,15.9 16.7,15.9 C18.4,15.7 20.1,15.5 21.8,15.3 C22.6,15.2 23.5,15.1 24.3,14.9 C24.2,14.7 24.2,14.4 24.1,14.2 C24.1,14 24.1,13.8 24.2,13.6 C24.3,13.4 24.5,13.2 24.6,13.2 C24.7,13.2 25,13.4 25,13.5 C25.1,13.9 25.1,14.2 25.1,14.7 C25.1,14.7 25.2,14.6 25.3,14.5 C25.5,14.1 25.5,13.6 25.3,13.1 L25.3,12.7 C26.8,10.1 28.2,7.5 29.7,5 C30.5,3.5 31.4,2 32.2,0.6 C32.2,0.5 32.3,0.5 32.3,0.4 C32.9,0.6 33.4,0.5 33.9,0.1 C31.7,5.1 29.4,10.1 27.2,15.1 C28.2,15.2 28.9,15.7 29.6,16.3 C30.2,15.6 30.7,15 31.3,14.4 C31.4,14.3 31.5,14.2 31.6,14.2 C32,14.6 32.4,15 32.8,15.4 C32.3,16.1 31.9,16.7 31.4,17.4 C31.1,17.8 30.9,18.1 30.6,18.5 C30.5,18.6 30.5,18.8 30.6,18.9 C31.1,20.2 31.7,21.2 32.8,22.1 C33.8,22.9 34.4,24 34.4,25.4 C34.3,26.4 34.4,27.5 34.3,28.5 C34.3,28.7 34.2,28.9 34,29 C32.5,29.9 31,30.9 29.7,32.3 C29.2,32.9 28.8,33.5 28.4,34.2 C28,34.8 27.7,35.4 27.4,36 C27.2,35 27,34.1 26.7,33.1 C26.7,32.9 26.6,32.7 26.6,32.5 C26.4,31.5 26.4,31.5 27.2,30.9 C28.1,30.2 29,29.6 29.8,28.8 C30.4,28.3 30.9,27.6 31.3,27 C31.7,26.4 31.9,25.5 31.2,24.8 C30.6,24.2 30.5,23.4 30.3,22.6 C30,21.6 29.7,20.5 29.4,19.5 C29.2,18.7 28.7,18.1 28.1,17.6 C27.8,17.3 27.4,17.2 27,17.4 C25.8,17.9 25.3,18.9 25.3,20.2 C25.2,22.7 25.3,25.2 25.3,27.7 L25.3,29.4 C25.1,27.8 25,26.3 24.8,24.7 C24.7,23.7 24.6,22.6 24.5,21.6 C24.3,20.2 24.6,18.9 25.2,17.7 C25.5,17.2 25.7,16.8 26,16.3 C26.1,16.2 26,16.1 26.1,15.9 C26,15.9 25.8,16 25.7,16 C25.3,16.4 24.9,16.8 24.5,17.2 C24.4,17.3 24.2,17.4 24.1,17.4 C21.1,17.6 18.1,17.8 15.1,18 L14.7,18 C15.2,17.3 15.8,16.7 16.4,16 Z" fill="#FFC200"></path>
                <path d="M45.2,45.2 C45.1,45.2 44.9,45.3 44.8,45.3 C41.5,45.4 38.2,45.4 34.8,45.5 C33.7,45.5 32.6,45.1 32,44 C31.3,42.7 31.2,41.3 31.4,39.8 C31.6,38.3 32.3,37.2 33.5,36.2 C34.4,35.4 35.5,35.1 36.7,34.9 C37.5,34.8 38.4,34.8 39.2,34.8 C39.3,34.8 39.5,34.8 39.6,34.9 C39.2,35 38.7,35 38.3,35.1 C38.3,35.1 38.3,35.1 38.3,35.2 L38.6,35.2 L40.6,35.2 C41.2,35.2 41.7,35.2 42.2,34.9 C42.4,34.8 42.6,34.8 42.9,34.8 C45,34.9 47.2,35 49.3,35.2 L49.6,35.2 C48.8,35.8 47.9,35.5 47.1,35.9 C47.3,36.4 47.5,36.9 47.3,37.5 C47.3,37.6 47.2,37.8 47.1,37.9 C46.8,38.4 46.2,38.4 45.9,37.9 C45.6,37.5 45.6,37 45.8,36.5 C45.8,36.4 45.9,36.2 46,36 C45.7,36 45.4,36.1 45.1,36.1 C45.2,36.5 45.3,36.9 45.2,37.3 C45.2,37.6 45,37.9 44.9,38.1 C44.6,38.5 44.2,38.4 44,38.1 C43.6,37.6 43.6,37 43.9,36.3 C43.4,36.4 43,36.4 42.6,36.5 C41.9,36.7 41.1,37 40.4,37.2 C40,37.3 39.7,37.5 39.3,37.7 C39.1,37.8 38.9,37.8 38.8,38 C38.5,38.4 38.2,38.8 37.9,39.2 C37.9,39.3 37.8,39.4 37.8,39.5 C37.9,39.9 38,40.2 38,40.6 C38.1,39.5 38.3,38.5 39.2,37.8 C40.2,37.5 40.7,37.9 41,38.8 C41.6,40.1 41.6,41.4 40.9,42.6 C40.2,43.8 39.1,43.8 38.5,42.6 C38.4,42.5 38.4,42.4 38.2,42.3 C38.3,42.6 38.3,43 38.4,43.3 C38.4,43.4 38.6,43.5 38.7,43.5 C40,43.7 41.4,43.9 42.7,44 C43.6,44.1 44.4,44.2 45.3,44.4 C45.4,44.4 45.6,44.5 45.7,44.5 C45.6,44.8 45.4,45 45.2,45.2 Z M41.4,40.8 C41.4,40.7 41.4,40.7 41.4,40.8 C41.3,40.2 41.2,39.7 40.8,39.2 C40.4,38.6 39.9,38.6 39.4,39.2 C38.8,39.9 38.8,41.5 39.3,42.2 C39.8,42.8 40.4,42.8 40.8,42.2 C41.2,41.7 41.3,41.2 41.4,40.8 Z M36.2,43.5 C36,43.1 35.9,42.8 35.4,42.9 L34,42.9 L32.8,42.9 C32.9,43.5 32.9,43.5 33.5,43.5 L35.5,43.5 L36.2,43.5 Z M33.5,37.4 L36.3,37.4 C36.8,37.4 37,37.1 37.3,36.8 L34.5,36.8 C34.1,36.8 33.8,37 33.5,37.4 Z M35.2,36.2 C36.8,36.1 38.4,36.5 39.9,35.7 L37.2,35.7 C36.6,35.6 35.9,35.7 35.2,36.2 Z M33.6,44.5 L33.6,44.7 C33.8,44.7 34,44.8 34.2,44.8 L37.9,44.8 L38.1,44.8 C36.6,44.1 35,44.5 33.6,44.5 Z M32.7,41.3 C32.6,41.7 32.7,41.8 33,41.7 L34.1,41.7 L35.5,41.7 C35.5,41.7 35.5,41.6 35.6,41.6 C35.5,41.5 35.4,41.3 35.3,41.3 C34.4,41.3 33.5,41.3 32.7,41.3 Z M32.7,39.8 L32.7,40.3 L35.4,40.3 L35.4,39.8 L32.7,39.8 Z M35.9,38.5 C35.8,38.4 35.8,38.4 35.9,38.5 C35,38.4 34.1,38.4 33.3,38.4 C33.2,38.4 33.1,38.5 33,38.6 C33,38.6 33,38.7 33.1,38.7 L35.6,38.7 C35.6,38.7 35.7,38.6 35.9,38.5 Z" fill="#CCCCCC"></path>
                <path d="M3.6,27 C3.8,27 4.1,26.9 4.3,26.9 C6,26.8 7.6,26.7 9.3,26.6 C11.6,26.5 14,26.3 16.3,26.2 C17.8,26.1 19.4,26 20.9,25.9 C21.5,25.9 22.1,25.8 22.8,25.8 L22.8,27.5 C22.8,28.4 22.8,28.4 21.9,28.4 C19.4,28.5 16.9,28.6 14.4,28.8 C10.9,29 7.4,29.1 3.8,29.3 C3.3,29.3 2.8,29.4 2.2,29.4 C2.2,29 2.3,28.6 2.3,28.2 C2.7,27.8 3.1,27.4 3.6,27 Z" fill="#FFC200"></path>
                <path d="M3.6,27 C3.2,27.4 2.8,27.8 2.4,28.3 C2.4,28.2 2.3,28.1 2.3,28 C2.3,25.9 2.4,23.8 2.4,21.6 C2.5,20.4 2.7,19.2 3.2,18.1 C3.6,17.4 4,16.8 4.6,16.3 C4.7,16.2 4.9,16.3 5.1,16.2 C5.4,16.5 5.7,16.9 6,17.2 C5.8,17.2 5.5,17.3 5.3,17.3 C4.8,17.3 4.6,17.4 4.4,17.9 C4.2,18.5 3.9,19.1 3.6,19.7 C4,19.7 4.3,19.7 4.7,19.6 C5.8,19.5 6.8,19.5 7.9,19.4 C8,19.4 8.2,19.4 8.3,19.5 C8.7,19.9 9.1,20.3 9.5,20.7 C9.1,21.1 8.7,21.5 8.3,22 C7.6,22 6.9,22.1 6.2,22.1 C5.3,22.2 4.4,22.2 3.5,22.3 L3.5,23.7 C4.4,23.7 5.2,23.6 6.1,23.6 L6.8,23.6 C6.2,24.2 5.6,24.8 5,25.4 C4.5,25.5 4,25.5 3.5,25.6 C3.5,26.1 3.5,26.5 3.6,27 Z" fill="#FFC200"></path>
                <path d="M11,19.4 C11.7,19.3 12.4,19.2 13.1,19.2 C15.7,19 18.3,18.9 21,18.7 L22,18.7 C22.1,19.6 22.3,20.5 22.4,21.5 L21.3,21.5 C19.6,21.6 18,21.7 16.3,21.8 C14.6,21.9 13,22 11.3,22.1 L10.8,22.1 C10.5,21.7 10.1,21.4 9.8,21 C10.1,20.3 10.5,19.8 11,19.4 Z" fill="#FFC200"></path>
                <path d="M5,25.5 C5.6,24.9 6.2,24.3 6.8,23.7 C7.4,23.6 8,23.5 8.6,23.5 C11.5,23.3 14.5,23.1 17.4,22.9 C19,22.8 20.5,22.7 22.1,22.6 C22.2,22.6 22.3,22.7 22.4,22.8 C22.5,23.4 22.6,23.9 22.7,24.6 C21.9,24.7 21.1,24.7 20.3,24.8 C17.3,25 14.3,25.1 11.3,25.3 C9.3,25.4 7.3,25.5 5.4,25.6 C5.2,25.5 5.1,25.5 5,25.5 Z" fill="#FFC200"></path>
                <path d="M49.1,33.7 C49.1,33.4 49,33.2 49,32.9 C53.9,32.8 58.7,32.8 63.5,32.7 L63.6,32.6 C63.7,31.9 63.7,31.9 64.4,31.8 C64.6,31.8 64.8,31.8 65,31.7 L65,30.8 C67.8,31.4 70.7,32.1 73.6,32.7 C73.7,32.9 73.5,33 73.2,33.1 C72.5,33.2 71.8,33.3 71.1,33.1 C69.8,32.7 68.5,32.4 67.1,32 C66.8,31.9 66.4,31.9 66.1,31.8 L66.1,31.9 C67.4,32.4 68.7,32.8 70.1,33.3 L70.1,33.4 C68.7,33.5 67.2,33.6 65.8,33.6 L57.1,33.6 L50,33.6 C49.7,33.7 49.4,33.7 49.1,33.7 Z" fill="#FFC200"></path>
                <path d="M76.1,41.2 C76.2,41.6 76.3,42 76.4,42.5 C69.5,42.6 62.6,42.7 55.7,42.8 C56.2,42.3 56.9,42.1 56.8,41.3 C63.2,41.2 69.6,41.2 76.1,41.2 Z" fill="#CCCCCC"></path>
                <path d="M21.5,22.1 C22.2,21.1 22.9,20.1 23.6,19.1 C24.6,17.7 25.5,16.3 26.4,14.9 C27,14 27.7,13.2 28.6,12.5 C28.6,13.1 28.7,13.7 29.2,14.1 C27.2,17.3 25.2,20.5 23.2,23.8 C23.1,23.3 23.3,22.7 22.9,22.3 C22.5,21.9 22,22 21.5,22.1 Z" fill="#FFC200"></path>
                <path d="M16.4,14.2 C16.3,13.7 16.3,13.3 16.2,12.8 C16.2,12.7 16.3,12.5 16.4,12.5 C17.1,12.2 17.7,11.8 18.4,11.5 C18.7,11.4 19,11.5 19.4,11.5 C19.7,11.5 19.9,11.5 20.1,11.3 C20.5,10.9 20.9,10.5 21.3,10.1 C21.5,9.8 21.8,9.8 22.1,10 C22.4,10.2 22.4,10.4 22.2,10.7 C22,11 21.8,11.3 21.5,11.6 C22.1,11.6 22.6,11.7 23.1,11.7 C22.8,11.9 22.4,12.1 22.2,12.4 C21.9,12.8 22.1,13.2 22.4,13.7 C20.4,13.9 18.4,14.1 16.4,14.2 Z" fill="#FFC200"></path>
                <path d="M6.1,17.2 C5.8,16.9 5.5,16.5 5.2,16.2 C5.4,16.1 5.6,16 5.8,16 C8,15.7 10.1,15.5 12.3,15.2 C13.2,15.1 14,15 14.9,14.8 C15,14.8 15.2,14.8 15.3,14.9 C14.7,15.5 14.1,16.1 13.6,16.7 C13.2,16.8 12.7,16.8 12.3,16.9 C10.4,17 8.4,17.2 6.5,17.3 C6.4,17.3 6.2,17.2 6.1,17.2 Z" fill="#FFC200"></path>
                <path d="M31.1,23.7 L31.1,23.7 C30.7,24 30.4,24.3 30,24.6 C30.2,23.8 30.4,23.2 30.6,22.5 C31,20.8 31.5,19 31.9,17.2 C32.2,15.7 32,14.2 31.4,12.8 L31.4,12.5 C32,13.1 32.5,13.7 32.7,14.5 C33,15.6 33,16.7 32.7,17.7 C32.4,19.1 32.1,20.5 31.8,21.9 C31.8,22 31.7,22.2 31.7,22.3 C31.7,22.9 31.5,23.4 31.1,23.7 Z" fill="#FFC200"></path>
                <path d="M61.4,45 C61.1,44.7 60.7,44.3 60.4,44 C60.6,44 60.9,43.9 61.1,43.9 C65.5,43.9 69.8,44 74.2,44 C74.4,44 74.5,44 74.7,44.1 C74.6,44.2 74.4,44.4 74.3,44.5 C74.2,44.5 74.1,44.6 74,44.6 C72.1,44.7 70.3,44.7 68.4,44.8 C66.3,44.9 64.2,45 62,45.1 C61.8,45.1 61.6,45 61.4,45 Z" fill="#CCCCCC"></path>
                <path d="M64.7,30.6 L64.7,29.7 C65.5,29.6 66.3,29.5 67,29.5 C67.4,29.5 67.8,29.7 68.3,29.9 C70.3,30.6 72.4,31.3 74.4,32 C74.7,32.1 74.7,32.2 74.6,32.5 C73.6,32.2 72.5,32 71.5,31.7 C70.1,31.4 68.8,30.9 67.4,30.7 C66.7,30.6 65.9,30.7 65.1,30.7 C65,30.6 64.9,30.6 64.7,30.6 Z" fill="#FFC200"></path>
                <path d="M55.7,40.5 C55.5,41 55.5,41.5 55.3,42 C54.9,42.8 54.2,42.8 53.7,42.1 C53.1,41.3 53.1,39.7 53.7,39 C54.3,38.2 55,38.4 55.3,39.1 C55.5,39.5 55.6,40 55.7,40.5 Z" fill="#CCCCCC"></path>
                <path d="M69.3,24.2 C69.1,24.2 69,24.1 68.8,24 L68.8,24.5 C68.8,25.6 68.9,26.8 68.9,27.9 C68.9,28.3 69.1,28.4 69.4,28.6 C70.6,29.1 71.8,29.7 73.1,30.2 C73.5,30.4 73.6,30.6 73.6,31.1 C73.2,30.9 72.8,30.8 72.3,30.6 C71.1,30.1 69.9,29.7 68.7,29.2 C68.6,29.2 68.5,29 68.5,28.9 C68.4,27 68.3,25.1 68.3,23.2 C68.3,23.1 68.3,23 68.4,22.9 C68.6,23.4 69,23.8 69.3,24.2 Z" fill="#FFC200"></path>
                <path d="M64.4,14.9 C64.9,15.3 65.5,15.7 66,16 C66.4,16.3 66.9,16.7 67.3,17 C67.4,17.1 67.5,17.2 67.5,17.3 C67.6,18.7 67.7,20.1 67.8,21.5 C67.8,21.5 67.8,21.6 67.7,21.7 C67.5,20.7 67.3,19.9 67.3,19 C67.3,18 66.8,17.6 66,17.3 C65.4,17 64.8,16.7 64.3,16.3 C64.2,16.3 64.2,16.2 64.2,16.1 C64.2,15.7 64.3,15.3 64.3,14.9 C64.4,15 64.4,14.9 64.4,14.9 Z" fill="#FFC200"></path>
                <path d="M63.8,18.4 C63.6,18.2 63.4,18 63.2,17.8 C63.2,17.3 63.1,16.9 63.1,16.4 C62.7,16.4 62.2,16.3 61.8,16.3 C61.5,16 61.2,15.7 60.9,15.4 C61.9,15.2 62.9,15 64,14.8 L64,15.5 C64,16.4 63.9,17.3 63.9,18.2 C63.8,18.3 63.8,18.3 63.8,18.4 Z" fill="#FFC200"></path>
                <path d="M22,25.1 C22.3,24.5 22.3,24.1 21.9,23.9 C21.5,23.6 21,23.8 20.6,24.4 C20.4,24.3 20.2,24.2 20.2,24.1 C20.2,23.8 20.3,23.5 20.4,23.3 C20.9,22.7 21.9,22.5 22.5,23 C23,23.3 23.3,24.2 23.1,24.8 C22.9,25 22.3,25.2 22,25.1 Z" fill="#FFC200"></path>
                <path d="M69.3,24.2 C68.9,23.8 68.6,23.4 68.2,23 C68,22.4 68,21.7 68.3,21.4 C68.3,21.8 68.4,22.2 68.4,22.5 C68.4,22.7 68.5,22.9 68.7,23 C69.1,23.3 69.6,23.6 70,23.8 C70.4,24 70.4,24.2 70.4,24.6 C70.3,24.6 70.1,24.5 69.9,24.5 C70.6,24.9 71.3,25.3 71.9,25.6 C72.9,26.1 73.2,27 73.2,28.1 C73.2,28.1 73.2,28.2 73.1,28.2 L73,28.1 C73,28 72.9,28 72.9,27.9 C72.8,27.1 72.3,26.6 71.7,26.2 C71,25.5 70.2,24.8 69.3,24.2 Z" fill="#FFC200"></path>
                <path d="M46.1,17.4 C46.3,17.9 46.5,18.4 46.6,18.9 C46.6,19 46.5,19.3 46.3,19.4 C46,19.6 45.7,19.7 45.4,19.8 C44.9,19.9 44.8,19.8 44.6,19.3 C44.5,18.9 44.3,18.6 44.2,18.2 C45,18.3 45.6,18.2 46,17.4 L46.1,17.4 Z" fill="#FFC200"></path>
                <path d="M61.1,28.7 C61.5,28.2 62,27.8 62.4,27.3 C62.7,27.3 63.1,27.2 63.4,27.2 C63.5,27.2 63.5,27.3 63.6,27.4 C63.8,27.8 63.9,28.3 64.1,28.8 L62.1,28.8 C61.8,28.8 61.4,28.7 61.1,28.7 Z" fill="#FFC200"></path>
                <path d="M65.9,23.8 C65.6,23.7 65.4,23.7 65.1,23.6 C65,24 65,24.4 64.9,24.7 C64.8,24.8 64.6,24.9 64.5,25 C64.5,24.3 64.4,23.7 64.4,23 C64.4,21.9 64.4,20.7 64.5,19.6 C64.5,19.5 64.5,19.4 64.6,19.3 C64.6,19.6 64.7,19.9 64.7,20.2 C64.8,20.9 64.8,21.6 64.9,22.2 C64.9,22.4 65.1,22.6 65.2,22.7 C65.4,23 65.7,23.2 66,23.4 C66,23.7 66,23.7 65.9,23.8 Z" fill="#FFC200"></path>
                <path d="M31.1,25.5 C31.1,25 31.4,24.5 31.8,24.5 C32.2,24.5 32.5,25 32.5,25.5 C32.5,26.1 32.2,26.5 31.8,26.5 C31.4,26.5 31.1,26.1 31.1,25.5 Z" fill="#FFC200"></path>
                <path d="M30.5,14.3 C30.1,13.9 29.8,13.6 29.4,13.2 C29.6,13 29.7,12.7 29.9,12.5 C30.1,12.2 30.2,12 30.4,11.6 C30.4,12.4 30.6,13 31.4,13.2 C31,13.6 30.8,14 30.5,14.3 Z" fill="#FFC200"></path>
                <path d="M11,19.4 C10.6,19.9 10.1,20.3 9.7,20.8 C9.7,20.8 9.7,20.8 9.6,20.8 C9.2,20.4 8.8,20 8.4,19.6 L8.5,19.5 C9.3,19.4 10.1,19.4 11,19.4 C10.9,19.3 10.9,19.3 11,19.4 Z" fill="#FFC200"></path>
                <path d="M64.6,25.1 C64.7,25 64.9,24.9 65,24.8 L65,26.1 L65,26.8 C65.6,26.6 66.1,26.4 66.7,26.1 C66.8,26 66.8,25.8 66.9,25.6 C67.1,26.2 67,26.3 66.5,26.5 C65.9,26.8 65.3,27 64.7,27.3 C64.6,26.5 64.6,25.8 64.6,25.1 Z" fill="#FFC200"></path>
                <path d="M9.6,20.8 L9.6,20.8 C10,21.2 10.3,21.6 10.7,21.9 C10.3,21.9 9.9,22 9.6,22 L8.4,22 C8.8,21.6 9.2,21.2 9.6,20.8 Z" fill="#FFC200"></path>
                <path d="M66.2,43 L68.2,43 C68.2,43.6 67.6,43.9 67.3,44 C66.9,44 66.4,43.5 66.2,43 Z" fill="#CCCCCC"></path>
                <path d="M71.6,43 L73.5,43 C73.5,43.4 73.1,43.9 72.6,44 C72.2,44 71.7,43.6 71.6,43 Z" fill="#CCCCCC"></path>
                <path d="M65.2,42.9 C65.1,43.4 64.7,43.8 64.3,43.8 C63.8,43.8 63.5,43.5 63.2,42.9 L65.2,42.9 Z" fill="#CCCCCC"></path>
                <path d="M62.6,42.9 C62.5,43.4 62.1,43.8 61.7,43.8 C61.2,43.8 60.9,43.5 60.6,42.9 L62.6,42.9 Z" fill="#CCCCCC"></path>
                <path d="M57.9,13 C57.9,12.6 58.2,12.3 58.5,12.3 C58.8,12.3 59.1,12.6 59.1,13 C59.1,13.4 58.9,13.7 58.5,13.7 C58.2,13.7 57.9,13.4 57.9,13 Z" fill="#FFC200"></path>
                <path d="M45.2,45.2 C45.4,45 45.6,44.8 45.8,44.6 C46.6,44.5 47.4,44.7 48.3,45.1 L47.5,45.1 C46.7,45.2 45.9,45.2 45.2,45.2 Z" fill="#CCCCCC"></path>
                <path d="M70.7,42.9 C70.5,43.5 70.2,43.8 69.7,43.8 C69.3,43.8 68.9,43.4 68.7,42.9 L70.7,42.9 Z" fill="#CCCCCC"></path>
                <path d="M31,12.4 C31.3,12.6 31.3,13 31.1,13.3 C31,13.5 30.8,13.8 30.6,13.9 C30.3,14.1 30,13.8 30,13.5 C30.3,13.1 30.6,12.7 31,12.4 Z" fill="#FFC200"></path>
                <path d="M31,12.4 C30.7,12.7 30.3,13.1 30,13.4 C29.7,13.2 29.8,12.9 29.8,12.6 C29.9,12.3 30,12 30.3,12 C30.5,12 30.7,12.1 30.9,12.2 C30.9,12.2 30.9,12.3 31,12.4 Z" fill="#FFC200"></path>
                <path d="M56.8,13.4 C56.8,13.7 56.6,14 56.4,14 C56.1,14 55.8,13.6 55.8,13.3 C55.8,13 56,12.7 56.3,12.7 C56.6,12.8 56.8,13 56.8,13.4 Z" fill="#FFC200"></path>
                <path d="M74.3,44.5 C74.4,44.4 74.6,44.2 74.7,44.1 C75.1,44.1 75.6,44.1 76,44.2 C76.3,44.2 76.5,44.4 76.8,44.5 L76.8,44.6 L74.5,44.6 C74.4,44.6 74.4,44.5 74.3,44.5 Z" fill="#CCCCCC"></path>
                <path d="M68.6,21.6 C70.5,22.1 70.5,22.6 70.4,23.6 C70.2,23.3 69.9,22.9 69.6,22.6 C69.3,22.2 69,21.9 68.6,21.6 Z" fill="#FFC200"></path>
                <path d="M54.7,13.9 C54.7,14.2 54.6,14.4 54.3,14.4 C54,14.4 53.9,14.2 53.9,14 C53.9,13.7 54,13.5 54.3,13.5 C54.6,13.4 54.7,13.6 54.7,13.9 Z" fill="#FFC200"></path>
                <path d="M72.6,28.6 C72.1,28.4 71.5,28.3 71,28.1 C70.9,28.1 70.9,27.8 70.8,27.6 C71.5,27.9 72.1,28 72.7,28.5 C72.6,28.5 72.6,28.6 72.6,28.6 Z" fill="#FFC200"></path>
                <path d="M70.9,26.8 C71.5,27.2 72.2,27.4 72.7,27.9 C72.7,27.9 72.7,28 72.6,28 C72.1,27.8 71.6,27.6 71.2,27.4 C70.8,27.3 70.7,27.2 70.9,26.8 Z" fill="#FFC200"></path>
                <path d="M72.2,27.2 C71.8,27 71.4,26.8 71,26.6 C70.9,26.5 70.9,26.3 70.9,26.1 C71.4,26.4 72,26.6 72.3,27 C72.2,27.1 72.2,27.1 72.2,27.2 Z" fill="#FFC200"></path>
                <path d="M65.9,23.8 L66.1,23.6 C66.4,23.8 66.6,24 66.9,24.2 C66.9,24.2 66.9,24.3 66.8,24.3 C66.5,24.1 66.2,24 65.9,23.8 Z" fill="#FFC200"></path>
                <path d="M73.1,28.1 L73.1,28.1 C73.2,28.6 73.3,29.1 73.3,29.5 L73.2,29.5 C73.2,29 73.2,28.5 73.1,28.1 Z" fill="#FFC200"></path>
            </g>
        </g>
    </g>
</svg>